<svg width="1200" height="720" viewBox="0 0 1200 720" fill="none" xmlns="http://www.w3.org/2000/svg">
  <rect width="1200" height="720" rx="36" fill="#EEF2FF"/>
  <rect x="48" y="48" width="1104" height="624" rx="36" fill="#F8FAFF" stroke="#C7D2FE"/>
  <rect x="148" y="132" width="312" height="456" rx="36" fill="#111827"/>
  <rect x="196" y="188" width="124" height="18" rx="9" fill="#E0E7FF"/>
  <rect x="196" y="252" width="196" height="48" rx="24" fill="#4F46E5"/>
  <rect x="196" y="332" width="216" height="14" rx="7" fill="#374151"/>
  <rect x="196" y="372" width="172" height="14" rx="7" fill="#374151"/>
  <rect x="540" y="116" width="420" height="488" rx="40" fill="#FFFFFF" stroke="#C7D2FE"/>
  <rect x="592" y="176" width="178" height="24" rx="12" fill="#111827"/>
  <rect x="592" y="222" width="248" height="14" rx="7" fill="#94A3B8"/>
  <rect x="592" y="286" width="316" height="56" rx="18" fill="#F8FAFC" stroke="#CBD5E1"/>
  <rect x="592" y="366" width="316" height="56" rx="18" fill="#F8FAFC" stroke="#CBD5E1"/>
  <rect x="592" y="454" width="316" height="58" rx="29" fill="#4F46E5"/>
  <rect x="678" y="540" width="144" height="14" rx="7" fill="#64748B"/>
  <rect x="842" y="174" width="84" height="34" rx="17" fill="#BAE6FD"/>
  <text x="196" y="540" fill="#A5B4FC" font-family="Inter, Arial, sans-serif" font-size="28">auth-flow</text>
</svg>
